<mxfile host="app.diagrams.net" modified="2021-06-21T06:46:25.132Z" agent="5.0 (Macintosh; Intel Mac OS X 10_15_7) AppleWebKit/537.36 (KHTML, like Gecko) Chrome/91.0.4472.106 Safari/537.36" etag="O4oKo1TkBo-w_1br83FO" version="14.6.5" type="github">
  <diagram id="XFxdV9Za8TYxR8axTyIl" name="Page-1">
    <mxGraphModel dx="1298" dy="728" grid="1" gridSize="10" guides="1" tooltips="1" connect="1" arrows="1" fold="1" page="1" pageScale="1" pageWidth="827" pageHeight="1169" math="0" shadow="0">
      <root>
        <mxCell id="0" />
        <mxCell id="1" parent="0" />
        <mxCell id="0UzhgM1PFROBlTRWztx0-32" style="edgeStyle=orthogonalEdgeStyle;rounded=0;orthogonalLoop=1;jettySize=auto;html=1;startArrow=none;exitX=0.525;exitY=0.05;exitDx=0;exitDy=0;exitPerimeter=0;" edge="1" parent="1" source="0UzhgM1PFROBlTRWztx0-6" target="0UzhgM1PFROBlTRWztx0-4">
          <mxGeometry relative="1" as="geometry">
            <mxPoint x="170" y="190" as="sourcePoint" />
            <Array as="points">
              <mxPoint x="170" y="241" />
            </Array>
          </mxGeometry>
        </mxCell>
        <mxCell id="0UzhgM1PFROBlTRWztx0-2" value="&lt;span&gt;ClassPkMoudle&lt;/span&gt;" style="rounded=1;whiteSpace=wrap;html=1;" vertex="1" parent="1">
          <mxGeometry x="110" y="395" width="120" height="60" as="geometry" />
        </mxCell>
        <mxCell id="0UzhgM1PFROBlTRWztx0-4" value="&lt;span&gt;BaseMoudle&lt;/span&gt;" style="rounded=1;whiteSpace=wrap;html=1;" vertex="1" parent="1">
          <mxGeometry x="110" y="20" width="120" height="60" as="geometry" />
        </mxCell>
        <mxCell id="0UzhgM1PFROBlTRWztx0-7" value="liveModuleHandleChatRoomInitAllData 直播间初始化完成" style="text;html=1;align=center;verticalAlign=middle;resizable=0;points=[];autosize=1;strokeColor=none;" vertex="1" parent="1">
          <mxGeometry x="230" y="60" width="320" height="20" as="geometry" />
        </mxCell>
        <mxCell id="0UzhgM1PFROBlTRWztx0-9" value="liveModuleHandleScheduledTask 轮询方法" style="text;html=1;align=center;verticalAlign=middle;resizable=0;points=[];autosize=1;strokeColor=none;" vertex="1" parent="1">
          <mxGeometry x="230" y="80" width="240" height="20" as="geometry" />
        </mxCell>
        <mxCell id="0UzhgM1PFROBlTRWztx0-13" value="liveModuleCenter" style="rounded=1;whiteSpace=wrap;html=1;" vertex="1" parent="1">
          <mxGeometry x="600" y="230" width="120" height="60" as="geometry" />
        </mxCell>
        <mxCell id="0UzhgM1PFROBlTRWztx0-41" value="" style="edgeStyle=orthogonalEdgeStyle;rounded=0;orthogonalLoop=1;jettySize=auto;html=1;entryX=0;entryY=0.5;entryDx=0;entryDy=0;" edge="1" parent="1" source="0UzhgM1PFROBlTRWztx0-14" target="0UzhgM1PFROBlTRWztx0-35">
          <mxGeometry relative="1" as="geometry" />
        </mxCell>
        <mxCell id="0UzhgM1PFROBlTRWztx0-14" value="TechboardViewController" style="rounded=1;whiteSpace=wrap;html=1;" vertex="1" parent="1">
          <mxGeometry x="330" y="395" width="270" height="55" as="geometry" />
        </mxCell>
        <mxCell id="0UzhgM1PFROBlTRWztx0-18" value="&amp;nbsp;moduleProviderGetCourseView" style="text;html=1;align=center;verticalAlign=middle;resizable=0;points=[];autosize=1;strokeColor=none;" vertex="1" parent="1">
          <mxGeometry x="720" y="250" width="190" height="20" as="geometry" />
        </mxCell>
        <mxCell id="0UzhgM1PFROBlTRWztx0-19" value="return self.coursewareScrollView" style="text;html=1;align=center;verticalAlign=middle;resizable=0;points=[];autosize=1;strokeColor=none;" vertex="1" parent="1">
          <mxGeometry x="870" y="370" width="190" height="20" as="geometry" />
        </mxCell>
        <mxCell id="0UzhgM1PFROBlTRWztx0-21" value="&lt;p class=&quot;p1&quot; style=&quot;margin: 0px ; font-stretch: normal ; line-height: normal ; background-color: rgb(31 , 31 , 36) ; font-size: 22px ; font-family: &amp;#34;menlo&amp;#34; ; color: rgb(65 , 161 , 192)&quot;&gt;&lt;br&gt;&lt;/p&gt;" style="text;html=1;align=center;verticalAlign=middle;resizable=0;points=[];autosize=1;strokeColor=none;" vertex="1" parent="1">
          <mxGeometry x="690" y="365" width="20" height="30" as="geometry" />
        </mxCell>
        <mxCell id="0UzhgM1PFROBlTRWztx0-22" value="showPublishPkResultAlert" style="text;html=1;align=center;verticalAlign=middle;resizable=0;points=[];autosize=1;strokeColor=none;" vertex="1" parent="1">
          <mxGeometry x="100" y="460" width="160" height="20" as="geometry" />
        </mxCell>
        <mxCell id="0UzhgM1PFROBlTRWztx0-23" value="moduleClassPkCanLeaveLivingRoom &lt;br&gt;获取插件实例，调用方法" style="text;html=1;align=center;verticalAlign=middle;resizable=0;points=[];autosize=1;strokeColor=none;" vertex="1" parent="1">
          <mxGeometry x="380" y="230" width="220" height="30" as="geometry" />
        </mxCell>
        <mxCell id="0UzhgM1PFROBlTRWztx0-30" value="businessProvider" style="rounded=1;whiteSpace=wrap;html=1;" vertex="1" parent="1">
          <mxGeometry x="600" y="20" width="120" height="60" as="geometry" />
        </mxCell>
        <mxCell id="0UzhgM1PFROBlTRWztx0-31" value="" style="endArrow=none;dashed=1;html=1;dashPattern=1 3;strokeWidth=2;entryX=0;entryY=0.5;entryDx=0;entryDy=0;exitX=1;exitY=0.5;exitDx=0;exitDy=0;" edge="1" parent="1" source="0UzhgM1PFROBlTRWztx0-4" target="0UzhgM1PFROBlTRWztx0-30">
          <mxGeometry width="50" height="50" relative="1" as="geometry">
            <mxPoint x="390" y="45" as="sourcePoint" />
            <mxPoint x="570" y="-70" as="targetPoint" />
            <Array as="points" />
          </mxGeometry>
        </mxCell>
        <mxCell id="0UzhgM1PFROBlTRWztx0-35" value="CoursewareViewController" style="rounded=1;whiteSpace=wrap;html=1;" vertex="1" parent="1">
          <mxGeometry x="820" y="395" width="270" height="55" as="geometry" />
        </mxCell>
        <mxCell id="0UzhgM1PFROBlTRWztx0-36" value="" style="endArrow=none;dashed=1;html=1;dashPattern=1 3;strokeWidth=2;entryX=0.5;entryY=1;entryDx=0;entryDy=0;exitX=0.5;exitY=0;exitDx=0;exitDy=0;" edge="1" parent="1" source="0UzhgM1PFROBlTRWztx0-13" target="0UzhgM1PFROBlTRWztx0-30">
          <mxGeometry width="50" height="50" relative="1" as="geometry">
            <mxPoint x="400" y="60" as="sourcePoint" />
            <mxPoint x="610" y="60" as="targetPoint" />
            <Array as="points" />
          </mxGeometry>
        </mxCell>
        <mxCell id="0UzhgM1PFROBlTRWztx0-38" value="" style="endArrow=classic;html=1;exitX=0.5;exitY=0;exitDx=0;exitDy=0;entryX=0;entryY=1;entryDx=0;entryDy=0;" edge="1" parent="1" source="0UzhgM1PFROBlTRWztx0-14" target="0UzhgM1PFROBlTRWztx0-13">
          <mxGeometry width="50" height="50" relative="1" as="geometry">
            <mxPoint x="535" y="395" as="sourcePoint" />
            <mxPoint x="550" y="280" as="targetPoint" />
          </mxGeometry>
        </mxCell>
        <mxCell id="0UzhgM1PFROBlTRWztx0-40" value="" style="endArrow=none;dashed=1;html=1;dashPattern=1 3;strokeWidth=2;entryX=1;entryY=1;entryDx=0;entryDy=0;exitX=0.159;exitY=0;exitDx=0;exitDy=0;exitPerimeter=0;" edge="1" parent="1" source="0UzhgM1PFROBlTRWztx0-35" target="0UzhgM1PFROBlTRWztx0-13">
          <mxGeometry width="50" height="50" relative="1" as="geometry">
            <mxPoint x="500" y="330" as="sourcePoint" />
            <mxPoint x="550" y="280" as="targetPoint" />
          </mxGeometry>
        </mxCell>
        <mxCell id="0UzhgM1PFROBlTRWztx0-6" value="继承" style="text;html=1;align=center;verticalAlign=middle;resizable=0;points=[];autosize=1;strokeColor=none;" vertex="1" parent="1">
          <mxGeometry x="150" y="240" width="40" height="20" as="geometry" />
        </mxCell>
        <mxCell id="0UzhgM1PFROBlTRWztx0-44" value="" style="edgeStyle=orthogonalEdgeStyle;rounded=0;orthogonalLoop=1;jettySize=auto;html=1;exitX=0.5;exitY=0;exitDx=0;exitDy=0;endArrow=none;" edge="1" parent="1" source="0UzhgM1PFROBlTRWztx0-2" target="0UzhgM1PFROBlTRWztx0-6">
          <mxGeometry relative="1" as="geometry">
            <mxPoint x="170" y="380" as="sourcePoint" />
            <mxPoint x="170" y="190" as="targetPoint" />
          </mxGeometry>
        </mxCell>
        <mxCell id="0UzhgM1PFROBlTRWztx0-48" value="chatRoomDidInitAllData&lt;br&gt;直播间初始化完成，分发给插件" style="text;html=1;align=center;verticalAlign=middle;resizable=0;points=[];autosize=1;strokeColor=none;" vertex="1" parent="1">
          <mxGeometry x="415" y="265" width="180" height="30" as="geometry" />
        </mxCell>
        <mxCell id="0UzhgM1PFROBlTRWztx0-49" value="chatRoom" style="rounded=1;whiteSpace=wrap;html=1;" vertex="1" parent="1">
          <mxGeometry x="827" y="20" width="120" height="60" as="geometry" />
        </mxCell>
        <mxCell id="0UzhgM1PFROBlTRWztx0-50" value="学生端" style="rounded=1;whiteSpace=wrap;html=1;" vertex="1" parent="1">
          <mxGeometry x="1080" y="20" width="120" height="60" as="geometry" />
        </mxCell>
        <mxCell id="0UzhgM1PFROBlTRWztx0-51" value="" style="shape=flexArrow;endArrow=classic;html=1;exitX=1;exitY=0.5;exitDx=0;exitDy=0;width=7;endSize=10.75;entryX=0;entryY=0.5;entryDx=0;entryDy=0;" edge="1" parent="1" source="0UzhgM1PFROBlTRWztx0-49" target="0UzhgM1PFROBlTRWztx0-50">
          <mxGeometry width="50" height="50" relative="1" as="geometry">
            <mxPoint x="964.5" y="50" as="sourcePoint" />
            <mxPoint x="1035" y="50" as="targetPoint" />
          </mxGeometry>
        </mxCell>
        <mxCell id="0UzhgM1PFROBlTRWztx0-52" value="" style="endArrow=none;dashed=1;html=1;dashPattern=1 3;strokeWidth=2;entryX=1;entryY=0.5;entryDx=0;entryDy=0;exitX=0;exitY=0.5;exitDx=0;exitDy=0;" edge="1" parent="1" source="0UzhgM1PFROBlTRWztx0-49" target="0UzhgM1PFROBlTRWztx0-30">
          <mxGeometry width="50" height="50" relative="1" as="geometry">
            <mxPoint x="670" y="240" as="sourcePoint" />
            <mxPoint x="670" y="90" as="targetPoint" />
            <Array as="points" />
          </mxGeometry>
        </mxCell>
        <mxCell id="0UzhgM1PFROBlTRWztx0-53" value="IRC" style="text;html=1;align=center;verticalAlign=middle;resizable=0;points=[];autosize=1;strokeColor=none;" vertex="1" parent="1">
          <mxGeometry x="980" y="20" width="40" height="20" as="geometry" />
        </mxCell>
        <mxCell id="0UzhgM1PFROBlTRWztx0-54" value="发布pk结果&lt;br&gt;开宝箱" style="text;html=1;align=center;verticalAlign=middle;resizable=0;points=[];autosize=1;strokeColor=none;" vertex="1" parent="1">
          <mxGeometry x="960" y="60" width="80" height="30" as="geometry" />
        </mxCell>
      </root>
    </mxGraphModel>
  </diagram>
</mxfile>
